<svg width="273" height="77" viewBox="0 0 273 77" fill="none" xmlns="http://www.w3.org/2000/svg">
<path d="M0.23 47V1.24H8.806L29.99 16.088H30.31L51.494 1.24H60.07V47H49.83V14.04L35.302 23.768V47H25.062V23.768L10.47 14.04V47H0.23ZM69.0425 47V1.24H79.2825V47H69.0425ZM88.23 47V1.24H98.598L130.982 34.136V1.24H141.222V47H130.854L98.47 14.04V47H88.23ZM150.168 47V1.24H188.504C193.24 1.24 196.909 2.43466 199.512 4.824C202.157 7.21333 203.48 10.84 203.48 15.704C203.48 19.8427 202.52 23.0853 200.6 25.432C198.68 27.7787 195.949 29.2507 192.408 29.848L202.968 47H191.32L181.528 30.168H160.408V47H150.168ZM187.288 9.56H160.408V21.784L187.288 21.848C189.165 21.848 190.594 21.3787 191.576 20.44C192.6 19.5013 193.112 17.9227 193.112 15.704C193.112 13.4427 192.6 11.864 191.576 10.968C190.594 10.0293 189.165 9.56 187.288 9.56ZM234.272 47.32C226.122 47.32 219.808 45.3787 215.328 41.496C210.848 37.5707 208.608 31.768 208.608 24.088C208.608 16.4507 210.848 10.6907 215.328 6.808C219.808 2.88266 226.272 0.919998 234.72 0.919998H246.24C254.688 0.919998 261.152 2.88266 265.632 6.808C270.112 10.6907 272.352 16.4507 272.352 24.088C272.352 31.768 270.112 37.5707 265.632 41.496C261.152 45.3787 254.794 47.32 246.56 47.32H234.272ZM235.424 9.24C230.688 9.24 226.997 10.0933 224.352 11.8C221.706 13.5067 220.042 16.216 219.36 19.928H261.6C260.917 16.216 259.253 13.5067 256.608 11.8C253.962 10.0933 250.272 9.24 245.536 9.24H235.424ZM235.616 39H245.536C250.314 39 254.005 38.1467 256.608 36.44C259.253 34.7333 260.917 32.0027 261.6 28.248H219.36C220.042 32.0027 221.706 34.7333 224.352 36.44C226.997 38.1467 230.752 39 235.616 39ZM84.2307 69.952L80.3667 60.556C80.2787 60.34 80.1947 60.1 80.1147 59.836C80.0427 60.1 79.9587 60.34 79.8627 60.556L75.9987 69.952H84.2307ZM87.4227 76H86.9067C86.7867 76 86.6987 75.932 86.6427 75.796L84.4467 70.456H75.7827L73.5867 75.796C73.5467 75.932 73.4547 76 73.3107 76H72.8187L79.8027 59.128H80.4387L87.4227 76ZM90.4857 67.336C90.6617 66.8 90.8697 66.324 91.1097 65.908C91.3497 65.492 91.6257 65.14 91.9377 64.852C92.2577 64.564 92.6177 64.348 93.0177 64.204C93.4177 64.052 93.8697 63.976 94.3737 63.976C94.6057 63.976 94.8417 63.996 95.0817 64.036C95.3297 64.068 95.5497 64.14 95.7417 64.252L95.6697 64.624C95.6377 64.712 95.5817 64.756 95.5017 64.756C95.4137 64.756 95.2777 64.728 95.0937 64.672C94.9177 64.608 94.6537 64.576 94.3017 64.576C93.8057 64.576 93.3617 64.656 92.9697 64.816C92.5857 64.968 92.2417 65.196 91.9377 65.5C91.6417 65.804 91.3777 66.184 91.1457 66.64C90.9137 67.096 90.7017 67.628 90.5097 68.236V76H89.8737V64.168H90.1617C90.3217 64.168 90.4057 64.256 90.4137 64.432L90.4857 67.336ZM105.279 65.464C105.255 65.488 105.231 65.512 105.207 65.536C105.183 65.552 105.151 65.56 105.111 65.56C105.047 65.56 104.947 65.504 104.811 65.392C104.675 65.28 104.487 65.156 104.247 65.02C104.007 64.884 103.703 64.76 103.335 64.648C102.967 64.536 102.523 64.48 102.003 64.48C101.267 64.48 100.611 64.612 100.035 64.876C99.4675 65.132 98.9835 65.504 98.5835 65.992C98.1915 66.48 97.8915 67.068 97.6835 67.756C97.4755 68.444 97.3715 69.22 97.3715 70.084C97.3715 70.972 97.4755 71.764 97.6835 72.46C97.8995 73.148 98.1995 73.728 98.5835 74.2C98.9755 74.672 99.4435 75.032 99.9875 75.28C100.539 75.528 101.151 75.652 101.823 75.652C102.431 75.652 102.939 75.584 103.347 75.448C103.763 75.304 104.107 75.148 104.379 74.98C104.651 74.804 104.859 74.648 105.003 74.512C105.147 74.368 105.251 74.296 105.315 74.296C105.379 74.296 105.431 74.32 105.471 74.368L105.615 74.548C105.471 74.748 105.271 74.944 105.015 75.136C104.767 75.328 104.475 75.5 104.139 75.652C103.811 75.796 103.443 75.912 103.035 76C102.635 76.096 102.207 76.144 101.751 76.144C100.991 76.144 100.303 76.008 99.6875 75.736C99.0715 75.464 98.5435 75.068 98.1035 74.548C97.6715 74.028 97.3355 73.392 97.0955 72.64C96.8555 71.888 96.7355 71.036 96.7355 70.084C96.7355 69.172 96.8515 68.34 97.0835 67.588C97.3235 66.836 97.6675 66.196 98.1155 65.668C98.5635 65.132 99.1115 64.716 99.7595 64.42C100.407 64.124 101.147 63.976 101.979 63.976C102.715 63.976 103.371 64.096 103.947 64.336C104.523 64.568 105.019 64.876 105.435 65.26L105.279 65.464ZM109.353 66.424C109.905 65.68 110.561 65.088 111.321 64.648C112.081 64.2 112.909 63.976 113.805 63.976C114.461 63.976 115.033 64.08 115.521 64.288C116.017 64.488 116.425 64.78 116.745 65.164C117.073 65.54 117.317 66.004 117.477 66.556C117.645 67.108 117.729 67.732 117.729 68.428V76H117.093V68.428C117.093 67.812 117.025 67.26 116.889 66.772C116.753 66.284 116.541 65.872 116.253 65.536C115.973 65.192 115.621 64.932 115.197 64.756C114.773 64.572 114.273 64.48 113.697 64.48C112.833 64.48 112.033 64.708 111.297 65.164C110.569 65.612 109.921 66.236 109.353 67.036V76H108.717V58.648H109.353V66.424ZM122.587 64.168V76H121.963V64.168H122.587ZM123.103 59.896C123.103 60.008 123.079 60.112 123.031 60.208C122.983 60.304 122.919 60.392 122.839 60.472C122.767 60.544 122.679 60.604 122.575 60.652C122.479 60.692 122.379 60.712 122.275 60.712C122.051 60.712 121.855 60.632 121.687 60.472C121.527 60.304 121.447 60.112 121.447 59.896C121.447 59.672 121.527 59.48 121.687 59.32C121.855 59.152 122.051 59.068 122.275 59.068C122.379 59.068 122.479 59.092 122.575 59.14C122.679 59.18 122.767 59.24 122.839 59.32C122.919 59.392 122.983 59.48 123.031 59.584C123.079 59.68 123.103 59.784 123.103 59.896ZM129.976 76.192C129.24 76.192 128.664 75.992 128.248 75.592C127.832 75.184 127.624 74.532 127.624 73.636V65.104H125.776C125.624 65.104 125.548 65.044 125.548 64.924V64.708L127.624 64.624L127.804 60.064C127.812 60.016 127.832 59.972 127.864 59.932C127.896 59.884 127.94 59.86 127.996 59.86H128.26V64.624H132.172V65.104H128.26V73.612C128.26 73.98 128.308 74.296 128.404 74.56C128.5 74.816 128.628 75.028 128.788 75.196C128.948 75.364 129.136 75.488 129.352 75.568C129.576 75.64 129.816 75.676 130.072 75.676C130.384 75.676 130.656 75.628 130.888 75.532C131.128 75.436 131.332 75.332 131.5 75.22C131.668 75.108 131.804 75.004 131.908 74.908C132.012 74.812 132.088 74.764 132.136 74.764C132.176 74.764 132.22 74.788 132.268 74.836L132.424 75.064C132.288 75.232 132.128 75.384 131.944 75.52C131.768 75.656 131.572 75.776 131.356 75.88C131.14 75.976 130.916 76.052 130.684 76.108C130.452 76.164 130.216 76.192 129.976 76.192ZM143.452 68.944C143.452 68.232 143.348 67.6 143.14 67.048C142.94 66.488 142.66 66.016 142.3 65.632C141.948 65.248 141.528 64.956 141.04 64.756C140.552 64.556 140.024 64.456 139.456 64.456C138.784 64.456 138.18 64.564 137.644 64.78C137.116 64.988 136.66 65.288 136.276 65.68C135.892 66.072 135.58 66.544 135.34 67.096C135.108 67.648 134.956 68.264 134.884 68.944H143.452ZM143.716 74.548C143.556 74.748 143.332 74.944 143.044 75.136C142.756 75.328 142.424 75.5 142.048 75.652C141.68 75.796 141.276 75.912 140.836 76C140.404 76.096 139.96 76.144 139.504 76.144C138.696 76.144 137.964 76.004 137.308 75.724C136.66 75.436 136.104 75.024 135.64 74.488C135.184 73.952 134.832 73.296 134.584 72.52C134.336 71.736 134.212 70.844 134.212 69.844C134.212 68.98 134.328 68.192 134.56 67.48C134.8 66.76 135.144 66.14 135.592 65.62C136.04 65.1 136.588 64.696 137.236 64.408C137.884 64.12 138.62 63.976 139.444 63.976C140.084 63.976 140.68 64.088 141.232 64.312C141.792 64.536 142.28 64.868 142.696 65.308C143.112 65.74 143.436 66.276 143.668 66.916C143.908 67.556 144.028 68.288 144.028 69.112C144.028 69.28 143.956 69.364 143.812 69.364H134.848C134.84 69.444 134.836 69.524 134.836 69.604C134.836 69.676 134.836 69.756 134.836 69.844C134.836 70.788 134.948 71.62 135.172 72.34C135.396 73.06 135.712 73.664 136.12 74.152C136.528 74.64 137.02 75.012 137.596 75.268C138.18 75.516 138.828 75.64 139.54 75.64C140.172 75.64 140.72 75.572 141.184 75.436C141.648 75.292 142.036 75.136 142.348 74.968C142.66 74.8 142.9 74.648 143.068 74.512C143.244 74.368 143.356 74.296 143.404 74.296C143.468 74.296 143.52 74.32 143.56 74.368L143.716 74.548ZM155.178 65.464C155.154 65.488 155.13 65.512 155.106 65.536C155.082 65.552 155.05 65.56 155.01 65.56C154.946 65.56 154.846 65.504 154.71 65.392C154.574 65.28 154.386 65.156 154.146 65.02C153.906 64.884 153.602 64.76 153.234 64.648C152.866 64.536 152.422 64.48 151.902 64.48C151.166 64.48 150.51 64.612 149.934 64.876C149.366 65.132 148.882 65.504 148.482 65.992C148.09 66.48 147.79 67.068 147.582 67.756C147.374 68.444 147.27 69.22 147.27 70.084C147.27 70.972 147.374 71.764 147.582 72.46C147.798 73.148 148.098 73.728 148.482 74.2C148.874 74.672 149.342 75.032 149.886 75.28C150.438 75.528 151.05 75.652 151.722 75.652C152.33 75.652 152.838 75.584 153.246 75.448C153.662 75.304 154.006 75.148 154.278 74.98C154.55 74.804 154.758 74.648 154.902 74.512C155.046 74.368 155.15 74.296 155.214 74.296C155.278 74.296 155.33 74.32 155.37 74.368L155.514 74.548C155.37 74.748 155.17 74.944 154.914 75.136C154.666 75.328 154.374 75.5 154.038 75.652C153.71 75.796 153.342 75.912 152.934 76C152.534 76.096 152.106 76.144 151.65 76.144C150.89 76.144 150.202 76.008 149.586 75.736C148.97 75.464 148.442 75.068 148.002 74.548C147.57 74.028 147.234 73.392 146.994 72.64C146.754 71.888 146.634 71.036 146.634 70.084C146.634 69.172 146.75 68.34 146.982 67.588C147.222 66.836 147.566 66.196 148.014 65.668C148.462 65.132 149.01 64.716 149.658 64.42C150.306 64.124 151.046 63.976 151.878 63.976C152.614 63.976 153.27 64.096 153.846 64.336C154.422 64.568 154.918 64.876 155.334 65.26L155.178 65.464ZM161.64 76.192C160.904 76.192 160.328 75.992 159.912 75.592C159.496 75.184 159.288 74.532 159.288 73.636V65.104H157.44C157.288 65.104 157.212 65.044 157.212 64.924V64.708L159.288 64.624L159.468 60.064C159.476 60.016 159.496 59.972 159.528 59.932C159.56 59.884 159.604 59.86 159.66 59.86H159.924V64.624H163.836V65.104H159.924V73.612C159.924 73.98 159.972 74.296 160.068 74.56C160.164 74.816 160.292 75.028 160.452 75.196C160.612 75.364 160.8 75.488 161.016 75.568C161.24 75.64 161.48 75.676 161.736 75.676C162.048 75.676 162.32 75.628 162.552 75.532C162.792 75.436 162.996 75.332 163.164 75.22C163.332 75.108 163.468 75.004 163.572 74.908C163.676 74.812 163.752 74.764 163.8 74.764C163.84 74.764 163.884 74.788 163.932 74.836L164.088 75.064C163.952 75.232 163.792 75.384 163.608 75.52C163.432 75.656 163.236 75.776 163.02 75.88C162.804 75.976 162.58 76.052 162.348 76.108C162.116 76.164 161.88 76.192 161.64 76.192ZM175.512 64.168V76H175.224C175.08 76 174.996 75.92 174.972 75.76L174.912 73.696C174.352 74.456 173.692 75.064 172.932 75.52C172.172 75.968 171.336 76.192 170.424 76.192C169.768 76.192 169.192 76.092 168.696 75.892C168.208 75.684 167.8 75.392 167.472 75.016C167.152 74.632 166.908 74.164 166.74 73.612C166.58 73.06 166.5 72.436 166.5 71.74V64.168H167.136V71.74C167.136 72.356 167.204 72.908 167.34 73.396C167.476 73.884 167.684 74.3 167.964 74.644C168.252 74.98 168.608 75.24 169.032 75.424C169.464 75.6 169.968 75.688 170.544 75.688C171.4 75.688 172.192 75.464 172.92 75.016C173.656 74.56 174.312 73.932 174.888 73.132V64.168H175.512ZM180.322 67.336C180.498 66.8 180.706 66.324 180.946 65.908C181.186 65.492 181.462 65.14 181.774 64.852C182.094 64.564 182.454 64.348 182.854 64.204C183.254 64.052 183.706 63.976 184.21 63.976C184.442 63.976 184.678 63.996 184.918 64.036C185.166 64.068 185.386 64.14 185.578 64.252L185.506 64.624C185.474 64.712 185.418 64.756 185.338 64.756C185.25 64.756 185.114 64.728 184.93 64.672C184.754 64.608 184.49 64.576 184.138 64.576C183.642 64.576 183.198 64.656 182.806 64.816C182.422 64.968 182.078 65.196 181.774 65.5C181.478 65.804 181.214 66.184 180.982 66.64C180.75 67.096 180.538 67.628 180.346 68.236V76H179.71V64.168H179.998C180.158 64.168 180.242 64.256 180.25 64.432L180.322 67.336ZM195.811 68.944C195.811 68.232 195.707 67.6 195.499 67.048C195.299 66.488 195.019 66.016 194.659 65.632C194.307 65.248 193.887 64.956 193.399 64.756C192.911 64.556 192.383 64.456 191.815 64.456C191.143 64.456 190.539 64.564 190.003 64.78C189.475 64.988 189.019 65.288 188.635 65.68C188.251 66.072 187.939 66.544 187.699 67.096C187.467 67.648 187.315 68.264 187.243 68.944H195.811ZM196.075 74.548C195.915 74.748 195.691 74.944 195.403 75.136C195.115 75.328 194.783 75.5 194.407 75.652C194.039 75.796 193.635 75.912 193.195 76C192.763 76.096 192.319 76.144 191.863 76.144C191.055 76.144 190.323 76.004 189.667 75.724C189.019 75.436 188.463 75.024 187.999 74.488C187.543 73.952 187.191 73.296 186.943 72.52C186.695 71.736 186.571 70.844 186.571 69.844C186.571 68.98 186.687 68.192 186.919 67.48C187.159 66.76 187.503 66.14 187.951 65.62C188.399 65.1 188.947 64.696 189.595 64.408C190.243 64.12 190.979 63.976 191.803 63.976C192.443 63.976 193.039 64.088 193.591 64.312C194.151 64.536 194.639 64.868 195.055 65.308C195.471 65.74 195.795 66.276 196.027 66.916C196.267 67.556 196.387 68.288 196.387 69.112C196.387 69.28 196.315 69.364 196.171 69.364H187.207C187.199 69.444 187.195 69.524 187.195 69.604C187.195 69.676 187.195 69.756 187.195 69.844C187.195 70.788 187.307 71.62 187.531 72.34C187.755 73.06 188.071 73.664 188.479 74.152C188.887 74.64 189.379 75.012 189.955 75.268C190.539 75.516 191.187 75.64 191.899 75.64C192.531 75.64 193.079 75.572 193.543 75.436C194.007 75.292 194.395 75.136 194.707 74.968C195.019 74.8 195.259 74.648 195.427 74.512C195.603 74.368 195.715 74.296 195.763 74.296C195.827 74.296 195.879 74.32 195.919 74.368L196.075 74.548Z" fill="white"/>
</svg>
